<mxfile host="Electron" modified="2025-07-10T06:41:47.126Z" agent="Mozilla/5.0 (Windows NT 10.0; Win64; x64) AppleWebKit/537.36 (KHTML, like Gecko) draw.io/24.4.0 Chrome/120.0.6099.109 Electron/28.1.0 Safari/537.36" etag="0vTjmbCISiIMijtiUhXa" version="24.4.0" type="device">
  <diagram name="Page-1" id="74e2e168-ea6b-b213-b513-2b3c1d86103e">
    <mxGraphModel dx="1509" dy="941" grid="1" gridSize="10" guides="1" tooltips="1" connect="1" arrows="1" fold="1" page="1" pageScale="1" pageWidth="1654" pageHeight="1169" background="none" math="0" shadow="0">
      <root>
        <mxCell id="0" />
        <mxCell id="1" parent="0" />
        <mxCell id="77e6c97f196da883-1" value="&lt;font style=&quot;font-size: 11px;&quot;&gt;动画运行任务&lt;/font&gt;" style="swimlane;html=1;childLayout=stackLayout;startSize=20;rounded=0;shadow=0;labelBackgroundColor=none;strokeWidth=1;fontFamily=Verdana;fontSize=8;align=center;" parent="1" vertex="1">
          <mxGeometry x="20" y="20" width="1350" height="1080" as="geometry" />
        </mxCell>
        <mxCell id="77e6c97f196da883-2" value="动画运行中信息" style="swimlane;html=1;startSize=20;" parent="77e6c97f196da883-1" vertex="1">
          <mxGeometry y="20" width="160" height="1060" as="geometry" />
        </mxCell>
        <mxCell id="IJaP6Yn7uG94tMOjmqX5-2" value="动画运行计数" style="rounded=1;whiteSpace=wrap;html=1;flipV=0;" vertex="1" parent="77e6c97f196da883-2">
          <mxGeometry x="28" y="320" width="120" height="60" as="geometry" />
        </mxCell>
        <mxCell id="IJaP6Yn7uG94tMOjmqX5-3" value="动画执行延时计数" style="rounded=1;whiteSpace=wrap;html=1;flipV=0;" vertex="1" parent="77e6c97f196da883-2">
          <mxGeometry x="20" y="460" width="120" height="60" as="geometry" />
        </mxCell>
        <mxCell id="IJaP6Yn7uG94tMOjmqX5-8" value="当前动画模式" style="rounded=1;whiteSpace=wrap;html=1;flipV=0;" vertex="1" parent="77e6c97f196da883-2">
          <mxGeometry x="23" y="40" width="120" height="60" as="geometry" />
        </mxCell>
        <mxCell id="IJaP6Yn7uG94tMOjmqX5-9" value="上次动画模式" style="rounded=1;whiteSpace=wrap;html=1;flipV=0;" vertex="1" parent="77e6c97f196da883-2">
          <mxGeometry x="30" y="180" width="120" height="60" as="geometry" />
        </mxCell>
        <mxCell id="IJaP6Yn7uG94tMOjmqX5-10" value="动画模式正在运行步骤索引" style="rounded=1;whiteSpace=wrap;html=1;flipV=0;" vertex="1" parent="77e6c97f196da883-2">
          <mxGeometry x="25" y="600" width="120" height="60" as="geometry" />
        </mxCell>
        <mxCell id="77e6c97f196da883-3" value="目标动画模式信息" style="swimlane;html=1;startSize=20;" parent="77e6c97f196da883-1" vertex="1">
          <mxGeometry x="160" y="20" width="160" height="1060" as="geometry" />
        </mxCell>
        <mxCell id="IJaP6Yn7uG94tMOjmqX5-11" value="动画模式" style="rounded=1;whiteSpace=wrap;html=1;" vertex="1" parent="77e6c97f196da883-3">
          <mxGeometry x="20" y="30" width="120" height="60" as="geometry" />
        </mxCell>
        <mxCell id="IJaP6Yn7uG94tMOjmqX5-12" value="动画延迟执行时间" style="rounded=1;whiteSpace=wrap;html=1;" vertex="1" parent="77e6c97f196da883-3">
          <mxGeometry x="20" y="173" width="120" height="60" as="geometry" />
        </mxCell>
        <mxCell id="IJaP6Yn7uG94tMOjmqX5-13" value="动画总步骤数" style="rounded=1;whiteSpace=wrap;html=1;" vertex="1" parent="77e6c97f196da883-3">
          <mxGeometry x="20" y="315" width="120" height="60" as="geometry" />
        </mxCell>
        <mxCell id="IJaP6Yn7uG94tMOjmqX5-14" value="动画重载次数" style="rounded=1;whiteSpace=wrap;html=1;" vertex="1" parent="77e6c97f196da883-3">
          <mxGeometry x="20" y="458" width="120" height="60" as="geometry" />
        </mxCell>
        <mxCell id="IJaP6Yn7uG94tMOjmqX5-15" value="动画二维数组" style="rounded=1;whiteSpace=wrap;html=1;" vertex="1" parent="77e6c97f196da883-3">
          <mxGeometry x="20" y="600" width="120" height="60" as="geometry" />
        </mxCell>
        <mxCell id="77e6c97f196da883-4" value="输入信息" style="swimlane;html=1;startSize=20;" parent="77e6c97f196da883-1" vertex="1">
          <mxGeometry x="320" y="20" width="160" height="1060" as="geometry" />
        </mxCell>
        <mxCell id="IJaP6Yn7uG94tMOjmqX5-16" value="输入动画模式" style="rounded=1;whiteSpace=wrap;html=1;" vertex="1" parent="77e6c97f196da883-4">
          <mxGeometry x="20" y="40" width="120" height="60" as="geometry" />
        </mxCell>
        <mxCell id="IJaP6Yn7uG94tMOjmqX5-17" value="输入动画二维数组执行函数" style="rounded=1;whiteSpace=wrap;html=1;" vertex="1" parent="77e6c97f196da883-4">
          <mxGeometry x="20" y="250" width="120" height="60" as="geometry" />
        </mxCell>
        <mxCell id="IJaP6Yn7uG94tMOjmqX5-18" value="动画运行结束反馈" style="rounded=1;whiteSpace=wrap;html=1;" vertex="1" parent="77e6c97f196da883-4">
          <mxGeometry x="10" y="460" width="120" height="60" as="geometry" />
        </mxCell>
        <mxCell id="77e6c97f196da883-5" value="初始化动画输入信息" style="swimlane;html=1;startSize=20;" parent="77e6c97f196da883-1" vertex="1">
          <mxGeometry x="480" y="20" width="160" height="1060" as="geometry" />
        </mxCell>
        <mxCell id="IJaP6Yn7uG94tMOjmqX5-21" value="" style="edgeStyle=none;curved=1;rounded=0;orthogonalLoop=1;jettySize=auto;html=1;fontSize=12;startSize=8;endSize=8;" edge="1" parent="77e6c97f196da883-5" source="IJaP6Yn7uG94tMOjmqX5-19" target="IJaP6Yn7uG94tMOjmqX5-20">
          <mxGeometry relative="1" as="geometry" />
        </mxCell>
        <mxCell id="IJaP6Yn7uG94tMOjmqX5-19" value="创建输入信息结构体&lt;div&gt;INPUT_INFO&lt;/div&gt;" style="rounded=1;whiteSpace=wrap;html=1;" vertex="1" parent="77e6c97f196da883-5">
          <mxGeometry x="20" y="60" width="120" height="60" as="geometry" />
        </mxCell>
        <mxCell id="IJaP6Yn7uG94tMOjmqX5-23" value="" style="edgeStyle=none;curved=1;rounded=0;orthogonalLoop=1;jettySize=auto;html=1;fontSize=12;startSize=8;endSize=8;" edge="1" parent="77e6c97f196da883-5" source="IJaP6Yn7uG94tMOjmqX5-20" target="IJaP6Yn7uG94tMOjmqX5-22">
          <mxGeometry relative="1" as="geometry" />
        </mxCell>
        <mxCell id="IJaP6Yn7uG94tMOjmqX5-20" value="输入模式" style="rounded=1;whiteSpace=wrap;html=1;" vertex="1" parent="77e6c97f196da883-5">
          <mxGeometry x="20" y="223" width="120" height="60" as="geometry" />
        </mxCell>
        <mxCell id="IJaP6Yn7uG94tMOjmqX5-25" value="" style="edgeStyle=none;curved=1;rounded=0;orthogonalLoop=1;jettySize=auto;html=1;fontSize=12;startSize=8;endSize=8;" edge="1" parent="77e6c97f196da883-5" source="IJaP6Yn7uG94tMOjmqX5-22" target="IJaP6Yn7uG94tMOjmqX5-24">
          <mxGeometry relative="1" as="geometry" />
        </mxCell>
        <mxCell id="IJaP6Yn7uG94tMOjmqX5-22" value="默认动画运行结束" style="rounded=1;whiteSpace=wrap;html=1;" vertex="1" parent="77e6c97f196da883-5">
          <mxGeometry x="20" y="387" width="120" height="60" as="geometry" />
        </mxCell>
        <mxCell id="IJaP6Yn7uG94tMOjmqX5-24" value="配置执行函数" style="rounded=1;whiteSpace=wrap;html=1;" vertex="1" parent="77e6c97f196da883-5">
          <mxGeometry x="20" y="550" width="120" height="60" as="geometry" />
        </mxCell>
        <mxCell id="IJaP6Yn7uG94tMOjmqX5-59" style="edgeStyle=orthogonalEdgeStyle;rounded=0;orthogonalLoop=1;jettySize=auto;html=1;exitX=0.5;exitY=1;exitDx=0;exitDy=0;entryX=0.25;entryY=0;entryDx=0;entryDy=0;strokeColor=default;align=center;verticalAlign=middle;fontFamily=Helvetica;fontSize=12;fontColor=default;labelBackgroundColor=default;startSize=8;endArrow=classic;endSize=8;" edge="1" parent="77e6c97f196da883-1" source="IJaP6Yn7uG94tMOjmqX5-16" target="IJaP6Yn7uG94tMOjmqX5-20">
          <mxGeometry relative="1" as="geometry" />
        </mxCell>
        <mxCell id="IJaP6Yn7uG94tMOjmqX5-60" style="edgeStyle=orthogonalEdgeStyle;rounded=0;orthogonalLoop=1;jettySize=auto;html=1;exitX=0.75;exitY=1;exitDx=0;exitDy=0;entryX=0.25;entryY=0;entryDx=0;entryDy=0;strokeColor=default;align=center;verticalAlign=middle;fontFamily=Helvetica;fontSize=12;fontColor=default;labelBackgroundColor=default;startSize=8;endArrow=classic;endSize=8;" edge="1" parent="77e6c97f196da883-1" source="IJaP6Yn7uG94tMOjmqX5-17" target="IJaP6Yn7uG94tMOjmqX5-24">
          <mxGeometry relative="1" as="geometry">
            <Array as="points">
              <mxPoint x="430" y="420" />
              <mxPoint x="460" y="420" />
              <mxPoint x="460" y="510" />
              <mxPoint x="530" y="510" />
            </Array>
          </mxGeometry>
        </mxCell>
        <mxCell id="77e6c97f196da883-6" value="动画运行任务流程" style="swimlane;html=1;startSize=20;" parent="77e6c97f196da883-1" vertex="1">
          <mxGeometry x="640" y="20" width="710" height="1060" as="geometry" />
        </mxCell>
        <mxCell id="IJaP6Yn7uG94tMOjmqX5-30" value="" style="edgeStyle=orthogonalEdgeStyle;curved=1;rounded=0;orthogonalLoop=1;jettySize=auto;html=1;strokeColor=default;align=center;verticalAlign=middle;fontFamily=Helvetica;fontSize=12;fontColor=default;labelBackgroundColor=default;startSize=8;endArrow=classic;endSize=8;" edge="1" parent="77e6c97f196da883-6" source="IJaP6Yn7uG94tMOjmqX5-28" target="IJaP6Yn7uG94tMOjmqX5-29">
          <mxGeometry relative="1" as="geometry" />
        </mxCell>
        <mxCell id="IJaP6Yn7uG94tMOjmqX5-28" value="传入三种信息" style="rounded=1;whiteSpace=wrap;html=1;fontFamily=Helvetica;fontSize=12;fontColor=default;labelBackgroundColor=default;" vertex="1" parent="77e6c97f196da883-6">
          <mxGeometry x="40" y="40" width="120" height="60" as="geometry" />
        </mxCell>
        <mxCell id="IJaP6Yn7uG94tMOjmqX5-32" value="" style="edgeStyle=orthogonalEdgeStyle;curved=1;rounded=0;orthogonalLoop=1;jettySize=auto;html=1;strokeColor=default;align=center;verticalAlign=middle;fontFamily=Helvetica;fontSize=12;fontColor=default;labelBackgroundColor=default;startSize=8;endArrow=classic;endSize=8;" edge="1" parent="77e6c97f196da883-6" source="IJaP6Yn7uG94tMOjmqX5-29" target="IJaP6Yn7uG94tMOjmqX5-33">
          <mxGeometry relative="1" as="geometry">
            <mxPoint x="100" y="240" as="targetPoint" />
          </mxGeometry>
        </mxCell>
        <mxCell id="IJaP6Yn7uG94tMOjmqX5-54" value="通过" style="edgeLabel;html=1;align=center;verticalAlign=middle;resizable=0;points=[];fontSize=12;fontFamily=Helvetica;fontColor=default;labelBackgroundColor=default;" vertex="1" connectable="0" parent="IJaP6Yn7uG94tMOjmqX5-32">
          <mxGeometry x="-0.15" y="-2" relative="1" as="geometry">
            <mxPoint as="offset" />
          </mxGeometry>
        </mxCell>
        <mxCell id="IJaP6Yn7uG94tMOjmqX5-52" style="edgeStyle=orthogonalEdgeStyle;curved=1;rounded=0;orthogonalLoop=1;jettySize=auto;html=1;exitX=1;exitY=0.5;exitDx=0;exitDy=0;entryX=0.5;entryY=0;entryDx=0;entryDy=0;strokeColor=default;align=center;verticalAlign=middle;fontFamily=Helvetica;fontSize=12;fontColor=default;labelBackgroundColor=default;startSize=8;endArrow=classic;endSize=8;" edge="1" parent="77e6c97f196da883-6" source="IJaP6Yn7uG94tMOjmqX5-29" target="IJaP6Yn7uG94tMOjmqX5-42">
          <mxGeometry relative="1" as="geometry" />
        </mxCell>
        <mxCell id="IJaP6Yn7uG94tMOjmqX5-53" value="不通过" style="edgeLabel;html=1;align=center;verticalAlign=middle;resizable=0;points=[];fontSize=12;fontFamily=Helvetica;fontColor=default;labelBackgroundColor=default;" vertex="1" connectable="0" parent="IJaP6Yn7uG94tMOjmqX5-52">
          <mxGeometry x="-0.575" y="-26" relative="1" as="geometry">
            <mxPoint as="offset" />
          </mxGeometry>
        </mxCell>
        <mxCell id="IJaP6Yn7uG94tMOjmqX5-29" value="指针校验" style="rounded=1;whiteSpace=wrap;html=1;fontFamily=Helvetica;fontSize=12;fontColor=default;labelBackgroundColor=default;" vertex="1" parent="77e6c97f196da883-6">
          <mxGeometry x="40" y="140" width="120" height="60" as="geometry" />
        </mxCell>
        <mxCell id="IJaP6Yn7uG94tMOjmqX5-37" value="" style="edgeStyle=orthogonalEdgeStyle;curved=1;rounded=0;orthogonalLoop=1;jettySize=auto;html=1;strokeColor=default;align=center;verticalAlign=middle;fontFamily=Helvetica;fontSize=12;fontColor=default;labelBackgroundColor=default;startSize=8;endArrow=classic;endSize=8;" edge="1" parent="77e6c97f196da883-6" source="IJaP6Yn7uG94tMOjmqX5-33" target="IJaP6Yn7uG94tMOjmqX5-36">
          <mxGeometry relative="1" as="geometry" />
        </mxCell>
        <mxCell id="IJaP6Yn7uG94tMOjmqX5-45" value="存在匹配模式" style="edgeLabel;html=1;align=center;verticalAlign=middle;resizable=0;points=[];fontSize=12;fontFamily=Helvetica;fontColor=default;labelBackgroundColor=default;" vertex="1" connectable="0" parent="IJaP6Yn7uG94tMOjmqX5-37">
          <mxGeometry x="-0.15" relative="1" as="geometry">
            <mxPoint as="offset" />
          </mxGeometry>
        </mxCell>
        <mxCell id="IJaP6Yn7uG94tMOjmqX5-43" value="" style="edgeStyle=orthogonalEdgeStyle;curved=1;rounded=0;orthogonalLoop=1;jettySize=auto;html=1;strokeColor=default;align=center;verticalAlign=middle;fontFamily=Helvetica;fontSize=12;fontColor=default;labelBackgroundColor=default;startSize=8;endArrow=classic;endSize=8;entryX=0.5;entryY=0;entryDx=0;entryDy=0;" edge="1" parent="77e6c97f196da883-6" source="IJaP6Yn7uG94tMOjmqX5-33" target="IJaP6Yn7uG94tMOjmqX5-42">
          <mxGeometry relative="1" as="geometry" />
        </mxCell>
        <mxCell id="IJaP6Yn7uG94tMOjmqX5-44" value="无匹配模式" style="edgeLabel;html=1;align=center;verticalAlign=middle;resizable=0;points=[];fontSize=12;fontFamily=Helvetica;fontColor=default;labelBackgroundColor=default;" vertex="1" connectable="0" parent="IJaP6Yn7uG94tMOjmqX5-43">
          <mxGeometry x="-0.2308" y="-4" relative="1" as="geometry">
            <mxPoint as="offset" />
          </mxGeometry>
        </mxCell>
        <mxCell id="IJaP6Yn7uG94tMOjmqX5-33" value="输入信息与存储动画信息模式匹配" style="rhombus;fontFamily=Helvetica;fontSize=12;fontColor=default;labelBackgroundColor=none;labelBorderColor=none;textShadow=0;whiteSpace=wrap;html=1;" vertex="1" parent="77e6c97f196da883-6">
          <mxGeometry x="30" y="240" width="140" height="80" as="geometry" />
        </mxCell>
        <mxCell id="IJaP6Yn7uG94tMOjmqX5-49" value="" style="edgeStyle=orthogonalEdgeStyle;curved=1;rounded=0;orthogonalLoop=1;jettySize=auto;html=1;strokeColor=default;align=center;verticalAlign=middle;fontFamily=Helvetica;fontSize=12;fontColor=default;labelBackgroundColor=default;startSize=8;endArrow=classic;endSize=8;" edge="1" parent="77e6c97f196da883-6" source="IJaP6Yn7uG94tMOjmqX5-36" target="IJaP6Yn7uG94tMOjmqX5-48">
          <mxGeometry relative="1" as="geometry" />
        </mxCell>
        <mxCell id="IJaP6Yn7uG94tMOjmqX5-36" value="输入动画模式传递给当前动画模式" style="rounded=1;whiteSpace=wrap;html=1;labelBackgroundColor=none;labelBorderColor=none;" vertex="1" parent="77e6c97f196da883-6">
          <mxGeometry x="40" y="360" width="120" height="60" as="geometry" />
        </mxCell>
        <mxCell id="IJaP6Yn7uG94tMOjmqX5-42" value="任务进程结束" style="whiteSpace=wrap;html=1;labelBackgroundColor=none;labelBorderColor=none;" vertex="1" parent="77e6c97f196da883-6">
          <mxGeometry x="180" y="330" width="120" height="60" as="geometry" />
        </mxCell>
        <mxCell id="IJaP6Yn7uG94tMOjmqX5-55" style="edgeStyle=orthogonalEdgeStyle;rounded=0;orthogonalLoop=1;jettySize=auto;html=1;exitX=0.5;exitY=1;exitDx=0;exitDy=0;strokeColor=default;align=center;verticalAlign=middle;fontFamily=Helvetica;fontSize=12;fontColor=default;labelBackgroundColor=default;startSize=8;endArrow=classic;endSize=8;entryX=-0.008;entryY=0.367;entryDx=0;entryDy=0;entryPerimeter=0;" edge="1" parent="77e6c97f196da883-6" source="IJaP6Yn7uG94tMOjmqX5-48" target="IJaP6Yn7uG94tMOjmqX5-50">
          <mxGeometry relative="1" as="geometry">
            <mxPoint x="20" y="120" as="targetPoint" />
            <Array as="points">
              <mxPoint x="100" y="560" />
              <mxPoint x="310" y="560" />
              <mxPoint x="310" y="62" />
            </Array>
          </mxGeometry>
        </mxCell>
        <mxCell id="IJaP6Yn7uG94tMOjmqX5-48" value="任务进程通过" style="rounded=1;whiteSpace=wrap;html=1;fontFamily=Helvetica;fontSize=12;fontColor=default;labelBackgroundColor=default;glass=0;" vertex="1" parent="77e6c97f196da883-6">
          <mxGeometry x="40" y="458" width="120" height="60" as="geometry" />
        </mxCell>
        <mxCell id="IJaP6Yn7uG94tMOjmqX5-62" value="" style="edgeStyle=orthogonalEdgeStyle;rounded=0;orthogonalLoop=1;jettySize=auto;html=1;strokeColor=default;align=center;verticalAlign=middle;fontFamily=Helvetica;fontSize=12;fontColor=default;labelBackgroundColor=default;startSize=8;endArrow=classic;endSize=8;" edge="1" parent="77e6c97f196da883-6" source="IJaP6Yn7uG94tMOjmqX5-50" target="IJaP6Yn7uG94tMOjmqX5-63">
          <mxGeometry relative="1" as="geometry">
            <mxPoint x="440" y="140" as="targetPoint" />
          </mxGeometry>
        </mxCell>
        <mxCell id="IJaP6Yn7uG94tMOjmqX5-50" value="动画运行信息：&lt;div&gt;延迟计数累加&lt;/div&gt;&lt;div&gt;动画运行计数累加&lt;/div&gt;" style="rounded=1;whiteSpace=wrap;html=1;fontFamily=Helvetica;fontSize=12;fontColor=default;labelBackgroundColor=default;" vertex="1" parent="77e6c97f196da883-6">
          <mxGeometry x="380" y="40" width="120" height="60" as="geometry" />
        </mxCell>
        <mxCell id="IJaP6Yn7uG94tMOjmqX5-67" value="" style="edgeStyle=orthogonalEdgeStyle;rounded=0;orthogonalLoop=1;jettySize=auto;html=1;strokeColor=default;align=center;verticalAlign=middle;fontFamily=Helvetica;fontSize=12;fontColor=default;labelBackgroundColor=default;startSize=8;endArrow=classic;endSize=8;" edge="1" parent="77e6c97f196da883-6" source="IJaP6Yn7uG94tMOjmqX5-63" target="IJaP6Yn7uG94tMOjmqX5-66">
          <mxGeometry relative="1" as="geometry" />
        </mxCell>
        <mxCell id="IJaP6Yn7uG94tMOjmqX5-69" value="有变化" style="edgeLabel;html=1;align=center;verticalAlign=middle;resizable=0;points=[];fontSize=12;fontFamily=Helvetica;fontColor=default;labelBackgroundColor=default;" vertex="1" connectable="0" parent="IJaP6Yn7uG94tMOjmqX5-67">
          <mxGeometry x="-0.45" y="5" relative="1" as="geometry">
            <mxPoint as="offset" />
          </mxGeometry>
        </mxCell>
        <mxCell id="IJaP6Yn7uG94tMOjmqX5-63" value="当前动画模式对比上次动画模式" style="rhombus;fontFamily=Helvetica;fontSize=12;fontColor=default;labelBackgroundColor=none;labelBorderColor=none;textShadow=0;whiteSpace=wrap;html=1;" vertex="1" parent="77e6c97f196da883-6">
          <mxGeometry x="370" y="140" width="140" height="80" as="geometry" />
        </mxCell>
        <mxCell id="IJaP6Yn7uG94tMOjmqX5-73" style="edgeStyle=orthogonalEdgeStyle;rounded=0;orthogonalLoop=1;jettySize=auto;html=1;exitX=0.5;exitY=1;exitDx=0;exitDy=0;strokeColor=default;align=center;verticalAlign=middle;fontFamily=Helvetica;fontSize=12;fontColor=default;labelBackgroundColor=default;startSize=8;endArrow=classic;endSize=8;" edge="1" parent="77e6c97f196da883-6" source="IJaP6Yn7uG94tMOjmqX5-66" target="IJaP6Yn7uG94tMOjmqX5-72">
          <mxGeometry relative="1" as="geometry" />
        </mxCell>
        <mxCell id="IJaP6Yn7uG94tMOjmqX5-66" value="响应新动画模式，&lt;div&gt;重置延时计数，&lt;/div&gt;&lt;div&gt;重置步骤索引&lt;/div&gt;&lt;div&gt;动画模式改变&lt;/div&gt;" style="rounded=1;whiteSpace=wrap;html=1;labelBackgroundColor=none;labelBorderColor=none;" vertex="1" parent="77e6c97f196da883-6">
          <mxGeometry x="380" y="260" width="120" height="60" as="geometry" />
        </mxCell>
        <mxCell id="IJaP6Yn7uG94tMOjmqX5-77" style="edgeStyle=orthogonalEdgeStyle;rounded=0;orthogonalLoop=1;jettySize=auto;html=1;exitX=1;exitY=0.5;exitDx=0;exitDy=0;strokeColor=default;align=center;verticalAlign=middle;fontFamily=Helvetica;fontSize=12;fontColor=default;labelBackgroundColor=default;startSize=8;endArrow=classic;endSize=8;" edge="1" parent="77e6c97f196da883-6" source="IJaP6Yn7uG94tMOjmqX5-72" target="IJaP6Yn7uG94tMOjmqX5-76">
          <mxGeometry relative="1" as="geometry" />
        </mxCell>
        <mxCell id="IJaP6Yn7uG94tMOjmqX5-78" value="否" style="edgeLabel;html=1;align=center;verticalAlign=middle;resizable=0;points=[];fontSize=12;fontFamily=Helvetica;fontColor=default;labelBackgroundColor=default;" vertex="1" connectable="0" parent="IJaP6Yn7uG94tMOjmqX5-77">
          <mxGeometry x="-0.3857" y="1" relative="1" as="geometry">
            <mxPoint as="offset" />
          </mxGeometry>
        </mxCell>
        <mxCell id="IJaP6Yn7uG94tMOjmqX5-80" value="" style="edgeStyle=orthogonalEdgeStyle;rounded=0;orthogonalLoop=1;jettySize=auto;html=1;strokeColor=default;align=center;verticalAlign=middle;fontFamily=Helvetica;fontSize=12;fontColor=default;labelBackgroundColor=default;startSize=8;endArrow=classic;endSize=8;" edge="1" parent="77e6c97f196da883-6" source="IJaP6Yn7uG94tMOjmqX5-72" target="IJaP6Yn7uG94tMOjmqX5-82">
          <mxGeometry relative="1" as="geometry">
            <mxPoint x="440.00000000000045" y="480" as="targetPoint" />
          </mxGeometry>
        </mxCell>
        <mxCell id="IJaP6Yn7uG94tMOjmqX5-81" value="是" style="edgeLabel;html=1;align=center;verticalAlign=middle;resizable=0;points=[];fontSize=12;fontFamily=Helvetica;fontColor=default;labelBackgroundColor=default;" vertex="1" connectable="0" parent="IJaP6Yn7uG94tMOjmqX5-80">
          <mxGeometry x="-0.3" y="-2" relative="1" as="geometry">
            <mxPoint as="offset" />
          </mxGeometry>
        </mxCell>
        <mxCell id="IJaP6Yn7uG94tMOjmqX5-72" value="动画延时计数是否溢出" style="rhombus;fontFamily=Helvetica;fontSize=12;fontColor=default;labelBackgroundColor=none;labelBorderColor=none;textShadow=0;whiteSpace=wrap;html=1;" vertex="1" parent="77e6c97f196da883-6">
          <mxGeometry x="370" y="360" width="140" height="80" as="geometry" />
        </mxCell>
        <mxCell id="IJaP6Yn7uG94tMOjmqX5-85" style="edgeStyle=orthogonalEdgeStyle;rounded=0;orthogonalLoop=1;jettySize=auto;html=1;exitX=0.5;exitY=1;exitDx=0;exitDy=0;strokeColor=default;align=center;verticalAlign=middle;fontFamily=Helvetica;fontSize=12;fontColor=default;labelBackgroundColor=default;startSize=8;endArrow=classic;endSize=8;" edge="1" parent="77e6c97f196da883-6" source="IJaP6Yn7uG94tMOjmqX5-76" target="IJaP6Yn7uG94tMOjmqX5-83">
          <mxGeometry relative="1" as="geometry" />
        </mxCell>
        <mxCell id="IJaP6Yn7uG94tMOjmqX5-76" value="动画运行计数清零" style="rounded=1;whiteSpace=wrap;html=1;fontFamily=Helvetica;fontSize=12;fontColor=default;labelBackgroundColor=default;" vertex="1" parent="77e6c97f196da883-6">
          <mxGeometry x="580" y="458" width="120" height="60" as="geometry" />
        </mxCell>
        <mxCell id="IJaP6Yn7uG94tMOjmqX5-86" style="edgeStyle=orthogonalEdgeStyle;rounded=0;orthogonalLoop=1;jettySize=auto;html=1;exitX=1;exitY=0.5;exitDx=0;exitDy=0;entryX=0.25;entryY=0;entryDx=0;entryDy=0;strokeColor=default;align=center;verticalAlign=middle;fontFamily=Helvetica;fontSize=12;fontColor=default;labelBackgroundColor=default;startSize=8;endArrow=classic;endSize=8;" edge="1" parent="77e6c97f196da883-6" source="IJaP6Yn7uG94tMOjmqX5-82" target="IJaP6Yn7uG94tMOjmqX5-83">
          <mxGeometry relative="1" as="geometry">
            <Array as="points">
              <mxPoint x="610" y="520" />
            </Array>
          </mxGeometry>
        </mxCell>
        <mxCell id="IJaP6Yn7uG94tMOjmqX5-96" value="否" style="edgeLabel;html=1;align=center;verticalAlign=middle;resizable=0;points=[];fontSize=12;fontFamily=Helvetica;fontColor=default;labelBackgroundColor=default;" vertex="1" connectable="0" parent="IJaP6Yn7uG94tMOjmqX5-86">
          <mxGeometry x="-0.1734" y="-3" relative="1" as="geometry">
            <mxPoint as="offset" />
          </mxGeometry>
        </mxCell>
        <mxCell id="IJaP6Yn7uG94tMOjmqX5-89" value="" style="edgeStyle=orthogonalEdgeStyle;rounded=0;orthogonalLoop=1;jettySize=auto;html=1;strokeColor=default;align=center;verticalAlign=middle;fontFamily=Helvetica;fontSize=12;fontColor=default;labelBackgroundColor=default;startSize=8;endArrow=classic;endSize=8;" edge="1" parent="77e6c97f196da883-6" source="IJaP6Yn7uG94tMOjmqX5-82" target="IJaP6Yn7uG94tMOjmqX5-93">
          <mxGeometry relative="1" as="geometry">
            <mxPoint x="440" y="600" as="targetPoint" />
          </mxGeometry>
        </mxCell>
        <mxCell id="IJaP6Yn7uG94tMOjmqX5-92" value="是" style="edgeLabel;html=1;align=center;verticalAlign=middle;resizable=0;points=[];fontSize=12;fontFamily=Helvetica;fontColor=default;labelBackgroundColor=default;" vertex="1" connectable="0" parent="IJaP6Yn7uG94tMOjmqX5-89">
          <mxGeometry x="-0.2056" relative="1" as="geometry">
            <mxPoint as="offset" />
          </mxGeometry>
        </mxCell>
        <mxCell id="IJaP6Yn7uG94tMOjmqX5-82" value="动画运行计数是否溢出" style="rhombus;fontFamily=Helvetica;fontSize=12;fontColor=default;labelBackgroundColor=none;labelBorderColor=none;textShadow=0;whiteSpace=wrap;html=1;" vertex="1" parent="77e6c97f196da883-6">
          <mxGeometry x="370" y="480" width="140" height="80" as="geometry" />
        </mxCell>
        <mxCell id="IJaP6Yn7uG94tMOjmqX5-83" value="任务进程结束" style="whiteSpace=wrap;html=1;labelBackgroundColor=none;labelBorderColor=none;" vertex="1" parent="77e6c97f196da883-6">
          <mxGeometry x="580" y="580" width="120" height="60" as="geometry" />
        </mxCell>
        <mxCell id="IJaP6Yn7uG94tMOjmqX5-95" value="" style="edgeStyle=orthogonalEdgeStyle;rounded=0;orthogonalLoop=1;jettySize=auto;html=1;strokeColor=default;align=center;verticalAlign=middle;fontFamily=Helvetica;fontSize=12;fontColor=default;labelBackgroundColor=default;startSize=8;endArrow=classic;endSize=8;" edge="1" parent="77e6c97f196da883-6" source="IJaP6Yn7uG94tMOjmqX5-93" target="IJaP6Yn7uG94tMOjmqX5-108">
          <mxGeometry relative="1" as="geometry">
            <mxPoint x="440" y="720" as="targetPoint" />
          </mxGeometry>
        </mxCell>
        <mxCell id="IJaP6Yn7uG94tMOjmqX5-107" value="是" style="edgeLabel;html=1;align=center;verticalAlign=middle;resizable=0;points=[];fontSize=12;fontFamily=Helvetica;fontColor=default;labelBackgroundColor=default;" vertex="1" connectable="0" parent="IJaP6Yn7uG94tMOjmqX5-95">
          <mxGeometry x="-0.2064" y="-2" relative="1" as="geometry">
            <mxPoint as="offset" />
          </mxGeometry>
        </mxCell>
        <mxCell id="IJaP6Yn7uG94tMOjmqX5-103" style="edgeStyle=orthogonalEdgeStyle;rounded=0;orthogonalLoop=1;jettySize=auto;html=1;exitX=0;exitY=0.5;exitDx=0;exitDy=0;strokeColor=default;align=center;verticalAlign=middle;fontFamily=Helvetica;fontSize=12;fontColor=default;labelBackgroundColor=default;startSize=8;endArrow=classic;endSize=8;" edge="1" parent="77e6c97f196da883-6" source="IJaP6Yn7uG94tMOjmqX5-93" target="IJaP6Yn7uG94tMOjmqX5-101">
          <mxGeometry relative="1" as="geometry" />
        </mxCell>
        <mxCell id="IJaP6Yn7uG94tMOjmqX5-104" value="否" style="edgeLabel;html=1;align=center;verticalAlign=middle;resizable=0;points=[];fontSize=12;fontFamily=Helvetica;fontColor=default;labelBackgroundColor=default;" vertex="1" connectable="0" parent="IJaP6Yn7uG94tMOjmqX5-103">
          <mxGeometry x="-0.3983" y="-1" relative="1" as="geometry">
            <mxPoint as="offset" />
          </mxGeometry>
        </mxCell>
        <mxCell id="IJaP6Yn7uG94tMOjmqX5-93" value="动画运行计数清零，&lt;div&gt;动画步骤是否溢出&lt;/div&gt;" style="rhombus;fontFamily=Helvetica;fontSize=12;fontColor=default;labelBackgroundColor=none;labelBorderColor=none;textShadow=0;whiteSpace=wrap;html=1;" vertex="1" parent="77e6c97f196da883-6">
          <mxGeometry x="370" y="600" width="140" height="80" as="geometry" />
        </mxCell>
        <mxCell id="IJaP6Yn7uG94tMOjmqX5-106" style="edgeStyle=orthogonalEdgeStyle;rounded=0;orthogonalLoop=1;jettySize=auto;html=1;exitX=0.5;exitY=1;exitDx=0;exitDy=0;entryX=0;entryY=0.5;entryDx=0;entryDy=0;strokeColor=default;align=center;verticalAlign=middle;fontFamily=Helvetica;fontSize=12;fontColor=default;labelBackgroundColor=default;startSize=8;endArrow=classic;endSize=8;" edge="1" parent="77e6c97f196da883-6" source="IJaP6Yn7uG94tMOjmqX5-101" target="IJaP6Yn7uG94tMOjmqX5-105">
          <mxGeometry relative="1" as="geometry" />
        </mxCell>
        <mxCell id="IJaP6Yn7uG94tMOjmqX5-101" value="动画步骤索引累加，&lt;div&gt;反馈运行未结束&lt;/div&gt;" style="rounded=1;whiteSpace=wrap;html=1;labelBackgroundColor=none;labelBorderColor=none;" vertex="1" parent="77e6c97f196da883-6">
          <mxGeometry x="250" y="690" width="120" height="60" as="geometry" />
        </mxCell>
        <mxCell id="IJaP6Yn7uG94tMOjmqX5-105" value="任务进程结束" style="whiteSpace=wrap;html=1;labelBackgroundColor=none;labelBorderColor=none;" vertex="1" parent="77e6c97f196da883-6">
          <mxGeometry x="380" y="940" width="120" height="60" as="geometry" />
        </mxCell>
        <mxCell id="IJaP6Yn7uG94tMOjmqX5-113" value="" style="edgeStyle=orthogonalEdgeStyle;rounded=0;orthogonalLoop=1;jettySize=auto;html=1;strokeColor=default;align=center;verticalAlign=middle;fontFamily=Helvetica;fontSize=12;fontColor=default;labelBackgroundColor=default;startSize=8;endArrow=classic;endSize=8;" edge="1" parent="77e6c97f196da883-6" source="IJaP6Yn7uG94tMOjmqX5-108" target="IJaP6Yn7uG94tMOjmqX5-112">
          <mxGeometry relative="1" as="geometry" />
        </mxCell>
        <mxCell id="IJaP6Yn7uG94tMOjmqX5-115" value="是" style="edgeLabel;html=1;align=center;verticalAlign=middle;resizable=0;points=[];fontSize=12;fontFamily=Helvetica;fontColor=default;labelBackgroundColor=default;" vertex="1" connectable="0" parent="IJaP6Yn7uG94tMOjmqX5-113">
          <mxGeometry x="0.1227" relative="1" as="geometry">
            <mxPoint y="-12" as="offset" />
          </mxGeometry>
        </mxCell>
        <mxCell id="IJaP6Yn7uG94tMOjmqX5-118" value="" style="edgeStyle=orthogonalEdgeStyle;rounded=0;orthogonalLoop=1;jettySize=auto;html=1;strokeColor=default;align=center;verticalAlign=middle;fontFamily=Helvetica;fontSize=12;fontColor=default;labelBackgroundColor=default;startSize=8;endArrow=classic;endSize=8;" edge="1" parent="77e6c97f196da883-6" source="IJaP6Yn7uG94tMOjmqX5-108" target="IJaP6Yn7uG94tMOjmqX5-117">
          <mxGeometry relative="1" as="geometry" />
        </mxCell>
        <mxCell id="IJaP6Yn7uG94tMOjmqX5-120" value="否" style="edgeLabel;html=1;align=center;verticalAlign=middle;resizable=0;points=[];fontSize=12;fontFamily=Helvetica;fontColor=default;labelBackgroundColor=default;" vertex="1" connectable="0" parent="IJaP6Yn7uG94tMOjmqX5-118">
          <mxGeometry x="-0.3329" y="2" relative="1" as="geometry">
            <mxPoint as="offset" />
          </mxGeometry>
        </mxCell>
        <mxCell id="IJaP6Yn7uG94tMOjmqX5-108" value="重载计数是否溢出" style="rhombus;fontFamily=Helvetica;fontSize=12;fontColor=default;labelBackgroundColor=none;labelBorderColor=none;textShadow=0;whiteSpace=wrap;html=1;" vertex="1" parent="77e6c97f196da883-6">
          <mxGeometry x="370" y="720" width="140" height="80" as="geometry" />
        </mxCell>
        <mxCell id="IJaP6Yn7uG94tMOjmqX5-114" value="" style="edgeStyle=orthogonalEdgeStyle;rounded=0;orthogonalLoop=1;jettySize=auto;html=1;strokeColor=default;align=center;verticalAlign=middle;fontFamily=Helvetica;fontSize=12;fontColor=default;labelBackgroundColor=default;startSize=8;endArrow=classic;endSize=8;" edge="1" parent="77e6c97f196da883-6" source="IJaP6Yn7uG94tMOjmqX5-112" target="IJaP6Yn7uG94tMOjmqX5-105">
          <mxGeometry relative="1" as="geometry" />
        </mxCell>
        <mxCell id="IJaP6Yn7uG94tMOjmqX5-112" value="&lt;div&gt;重载计数累加，&lt;/div&gt;反馈运行未结束，&lt;div&gt;步骤索引清零&lt;/div&gt;" style="rounded=1;whiteSpace=wrap;html=1;fontFamily=Helvetica;fontSize=12;fontColor=default;labelBackgroundColor=default;" vertex="1" parent="77e6c97f196da883-6">
          <mxGeometry x="380" y="840" width="120" height="60" as="geometry" />
        </mxCell>
        <mxCell id="IJaP6Yn7uG94tMOjmqX5-119" style="edgeStyle=orthogonalEdgeStyle;rounded=0;orthogonalLoop=1;jettySize=auto;html=1;exitX=0.5;exitY=1;exitDx=0;exitDy=0;entryX=1;entryY=0.5;entryDx=0;entryDy=0;strokeColor=default;align=center;verticalAlign=middle;fontFamily=Helvetica;fontSize=12;fontColor=default;labelBackgroundColor=default;startSize=8;endArrow=classic;endSize=8;" edge="1" parent="77e6c97f196da883-6" source="IJaP6Yn7uG94tMOjmqX5-117" target="IJaP6Yn7uG94tMOjmqX5-105">
          <mxGeometry relative="1" as="geometry" />
        </mxCell>
        <mxCell id="IJaP6Yn7uG94tMOjmqX5-117" value="&lt;div&gt;重载计数保持，&lt;/div&gt;反馈运行结束，&lt;div&gt;步骤索引保持&lt;/div&gt;" style="rounded=1;whiteSpace=wrap;html=1;fontFamily=Helvetica;fontSize=12;fontColor=default;labelBackgroundColor=default;" vertex="1" parent="77e6c97f196da883-6">
          <mxGeometry x="520" y="840" width="120" height="60" as="geometry" />
        </mxCell>
      </root>
    </mxGraphModel>
  </diagram>
</mxfile>
